<svg id="Layer_1" data-name="Layer 1" xmlns="http://www.w3.org/2000/svg" viewBox="0 0 94.92 36.28"><defs><style>.cls-1{fill:#76dd1b;}.cls-2{fill:#40e0d0;}.cls-3{fill:#031c90;}.cls-4{fill:#070707;}</style></defs><title>Hayaan Tech_logo</title><path class="cls-1" d="M16.55,30.6c0-2,0-3.9,0-5.84A2.56,2.56,0,0,0,16,23.14a10.64,10.64,0,0,1-3.31-9.5,38.9,38.9,0,0,0,0-4.71,1.72,1.72,0,0,0-.86-1.67,3.06,3.06,0,0,1-1.21-3.74,2.92,2.92,0,0,1,3-2,2.93,2.93,0,0,1,2.75,2.23,3,3,0,0,1-1.55,3.6A1.39,1.39,0,0,0,14,8.87c0,2.77,0,5.55,0,8.32a4.05,4.05,0,0,0,.66,1.93,17.08,17.08,0,0,0,2,2.67,4.91,4.91,0,0,1,1.31,3.77c-.09,3.52,0,7-.06,10.56,0,.57-.45,1.63-.67,1.62-1.05,0-.74-1-.76-1.63C16.53,34.27,16.55,32.44,16.55,30.6Zm-3-27.66a1.67,1.67,0,0,0-1.71,1.69,1.67,1.67,0,1,0,3.33.1A1.68,1.68,0,0,0,13.53,2.94Z" transform="translate(-2.07 -1.55)"/><path class="cls-2" d="M13.2,31.33c0-1.61.05-3.22,0-4.83a3.28,3.28,0,0,0-.58-1.73c-1.69-2.18-3.47-4.29-5.18-6.45a1.43,1.43,0,0,0-1.63-.58A3.07,3.07,0,1,1,5,11.66c1.87-.08,3.62,1.4,3.18,3.16-.5,2,.56,3,1.54,4.19,1.48,1.82,3,3.61,4.45,5.46A2.73,2.73,0,0,1,14.68,26c.05,3.48,0,7,0,10.44a1.43,1.43,0,0,1,0,.66,5.46,5.46,0,0,1-.7.75c-.22-.22-.52-.41-.64-.68a2.73,2.73,0,0,1-.1-1C13.2,34.55,13.2,32.94,13.2,31.33Zm-8-18.17a1.54,1.54,0,0,0-1.73,1.59,1.89,1.89,0,0,0,1.68,1.77,1.86,1.86,0,0,0,1.73-1.7A1.59,1.59,0,0,0,5.18,13.16Z" transform="translate(-2.07 -1.55)"/><path class="cls-3" d="M21.22,26.79c0,3.33,0,6.65,0,10,0,.36-.33.71-.51,1.06a3.73,3.73,0,0,1-.71-1,5.35,5.35,0,0,1-.08-1.45q0-9.2,0-18.4A1.79,1.79,0,0,0,19,15.19a2.93,2.93,0,0,1-1.22-3.53A3.13,3.13,0,0,1,20.6,9.52a3.29,3.29,0,0,1,2.94,2,2.94,2.94,0,0,1-1.11,3.57,2.31,2.31,0,0,0-1.24,2.46c0,3.06,0,6.13,0,9.2Zm-.58-12.4a1.68,1.68,0,0,0,1.69-1.7,1.69,1.69,0,1,0-3.38,0A1.8,1.8,0,0,0,20.64,14.39Z" transform="translate(-2.07 -1.55)"/><path class="cls-2" d="M23.2,33.28c-.65-2.19.47-4.09,2.48-5.65a5.38,5.38,0,0,0,2.22-5.46,5.49,5.49,0,0,1,0-1.46,2.38,2.38,0,0,0-1.14-2.52,3,3,0,0,1-1-3.61,2.91,2.91,0,0,1,3.12-1.83,3,3,0,0,1,1.32,5.65,1.81,1.81,0,0,0-1,1.89c.05,1.61.07,3.22,0,4.83a2.78,2.78,0,0,1-.65,1.57c-1,1.17-2.23,2.2-3.25,3.38a3.13,3.13,0,0,0-.72,1.76c-.1,1.6,0,3.21-.06,4.82,0,.4-.37.78-.57,1.17-.25-.39-.68-.76-.73-1.17C23.13,35.69,23.2,34.71,23.2,33.28Zm5.66-19.16A1.72,1.72,0,0,0,27,15.68a1.7,1.7,0,1,0,3.4.13A1.6,1.6,0,0,0,28.86,14.12Z" transform="translate(-2.07 -1.55)"/><path class="cls-4" d="M37.61,14H44.3V9.65h1.91V20.24H44.3V15.91H37.61v4.33H35.7V9.65h1.91Z" transform="translate(-2.07 -1.55)"/><path class="cls-4" d="M56.38,17.6a3.14,3.14,0,0,1-.14.86,3,3,0,0,1-.45.86A2.59,2.59,0,0,1,55,20a2.53,2.53,0,0,1-1.22.26H50.31a2.69,2.69,0,0,1-.85-.14,2.54,2.54,0,0,1-.86-.45,2.44,2.44,0,0,1-.65-.82,2.6,2.6,0,0,1-.27-1.23,3.15,3.15,0,0,1,.14-.87,3,3,0,0,1,.45-.86,2.59,2.59,0,0,1,.82-.66,2.53,2.53,0,0,1,1.22-.27h3.44v1.84H50.31a.75.75,0,0,0-.6.24.87.87,0,0,0-.21.59.75.75,0,0,0,.24.59.88.88,0,0,0,.58.21h3.43a.75.75,0,0,0,.6-.24.84.84,0,0,0,.21-.59V14.9a.77.77,0,0,0-.81-.82H49.56V12.25h4.19a3,3,0,0,1,.85.14,2.76,2.76,0,0,1,.86.46,2.44,2.44,0,0,1,.65.82,2.6,2.6,0,0,1,.27,1.23Z" transform="translate(-2.07 -1.55)"/><path class="cls-4" d="M64.08,20.24H60.64a2.83,2.83,0,0,1-.88-.14,2.44,2.44,0,0,1-.87-.46,2.53,2.53,0,0,1-.67-.83A2.86,2.86,0,0,1,58,17.55v-5.3h1.91v5.3a.74.74,0,0,0,.2.57.74.74,0,0,0,.58.2h3.43Zm2.67.77a2.73,2.73,0,0,1-.13.89,2.39,2.39,0,0,1-.33.7,2.08,2.08,0,0,1-.47.51,2.77,2.77,0,0,1-.57.34,2.82,2.82,0,0,1-.6.2,2.91,2.91,0,0,1-.57.06H60.64V21.79h3.44a.77.77,0,0,0,.57-.2.8.8,0,0,0,.19-.58V12.25h1.91Z" transform="translate(-2.07 -1.55)"/><path class="cls-4" d="M76.75,17.6a2.8,2.8,0,0,1-.14.86,2.54,2.54,0,0,1-.45.86,2.66,2.66,0,0,1-.81.66,2.56,2.56,0,0,1-1.22.26H70.69a2.75,2.75,0,0,1-.86-.14,2.49,2.49,0,0,1-.85-.45,2.59,2.59,0,0,1-.66-.82,2.72,2.72,0,0,1-.26-1.23,3.15,3.15,0,0,1,.14-.87,2.54,2.54,0,0,1,.45-.86,2.59,2.59,0,0,1,.82-.66,2.53,2.53,0,0,1,1.22-.27h3.44v1.84H70.69a.75.75,0,0,0-.6.24.83.83,0,0,0-.22.59.72.72,0,0,0,.25.59.86.86,0,0,0,.58.21h3.43a.75.75,0,0,0,.6-.24.84.84,0,0,0,.21-.59V14.9a.81.81,0,0,0-.23-.6.79.79,0,0,0-.58-.22H69.94V12.25h4.19a3,3,0,0,1,.85.14,2.56,2.56,0,0,1,1.51,1.28,2.72,2.72,0,0,1,.26,1.23Z" transform="translate(-2.07 -1.55)"/><path class="cls-4" d="M86.57,17.6a3.14,3.14,0,0,1-.14.86,3,3,0,0,1-.45.86,2.59,2.59,0,0,1-.82.66,2.53,2.53,0,0,1-1.22.26H80.5a2.69,2.69,0,0,1-.85-.14,2.41,2.41,0,0,1-.85-.45,2.35,2.35,0,0,1-.66-.82,2.6,2.6,0,0,1-.27-1.23,3.15,3.15,0,0,1,.14-.87,2.76,2.76,0,0,1,.46-.86,2.44,2.44,0,0,1,.81-.66,2.53,2.53,0,0,1,1.22-.27h3.44v1.84H80.5a.75.75,0,0,0-.6.24.87.87,0,0,0-.21.59.75.75,0,0,0,.24.59.89.89,0,0,0,.59.21h3.42a.75.75,0,0,0,.6-.24.84.84,0,0,0,.22-.59V14.9a.79.79,0,0,0-.82-.82H79.75V12.25h4.19a3.14,3.14,0,0,1,.86.14,2.82,2.82,0,0,1,.85.46,2.44,2.44,0,0,1,.65.82,2.6,2.6,0,0,1,.27,1.23Z" transform="translate(-2.07 -1.55)"/><path class="cls-4" d="M97,20.24h-1.9V15.81a1.83,1.83,0,0,0-.13-.68,1.54,1.54,0,0,0-.35-.51,1.65,1.65,0,0,0-.52-.33,1.69,1.69,0,0,0-.64-.11H90.1v6.06H88.2v-7a1,1,0,0,1,.07-.38,1.21,1.21,0,0,1,.2-.3,1.1,1.1,0,0,1,.31-.2,1,1,0,0,1,.38-.08h4.29a3.42,3.42,0,0,1,.76.09,3.55,3.55,0,0,1,.8.26,3.38,3.38,0,0,1,.74.46,2.88,2.88,0,0,1,.63.67,3.21,3.21,0,0,1,.44.91A3.9,3.9,0,0,1,97,15.81Z" transform="translate(-2.07 -1.55)"/><path class="cls-4" d="M59.37,26.73h-4.2v8.68H53.26V26.73H49.05V24.81H59.37Z" transform="translate(-2.07 -1.55)"/><path class="cls-4" d="M68.26,30.07a3.14,3.14,0,0,1-.14.86,2.76,2.76,0,0,1-.46.86,2.44,2.44,0,0,1-.81.66,2.65,2.65,0,0,1-1.22.26H62.19V30.89h3.44a.75.75,0,0,0,.6-.24.88.88,0,0,0,.21-.6.75.75,0,0,0-.24-.59.82.82,0,0,0-.57-.21H62.19a.75.75,0,0,0-.6.24.88.88,0,0,0-.22.59v2.69a.75.75,0,0,0,.24.59.83.83,0,0,0,.59.22h3.43v1.83H62.19a3.14,3.14,0,0,1-.86-.14,2.59,2.59,0,0,1-.85-.45,2.54,2.54,0,0,1-.65-.82,2.6,2.6,0,0,1-.27-1.23v-2.7a3,3,0,0,1,.14-.86,2.83,2.83,0,0,1,.45-.86,2.46,2.46,0,0,1,.82-.66,2.53,2.53,0,0,1,1.22-.27h3.44a3,3,0,0,1,.85.14,2.61,2.61,0,0,1,.85.46,2.35,2.35,0,0,1,.66.82A2.54,2.54,0,0,1,68.26,30.07Z" transform="translate(-2.07 -1.55)"/><path class="cls-4" d="M77.22,35.41H72.05a3.15,3.15,0,0,1-.87-.14,2.61,2.61,0,0,1-.87-.46,2.7,2.7,0,0,1-.67-.84,2.8,2.8,0,0,1-.26-1.26v-2.6a2.91,2.91,0,0,1,.06-.57,3.31,3.31,0,0,1,.19-.61,2.82,2.82,0,0,1,.35-.57,2.08,2.08,0,0,1,.5-.48,2.45,2.45,0,0,1,.69-.33,2.67,2.67,0,0,1,.88-.13h5.17v1.92H72.05a.7.7,0,0,0-.77.79v2.58a.7.7,0,0,0,.78.78h5.16Z" transform="translate(-2.07 -1.55)"/><path class="cls-4" d="M80.73,35.41H78.82V24h1.91Zm6.88,0h-1.9v-5.3a.77.77,0,0,0-.2-.57.74.74,0,0,0-.57-.2H81.5V27.42h3.44a2.91,2.91,0,0,1,.57.06,3.52,3.52,0,0,1,.6.2,2.77,2.77,0,0,1,.57.34,2.34,2.34,0,0,1,.48.51,3.15,3.15,0,0,1,.33.69,3.09,3.09,0,0,1,.12.89Z" transform="translate(-2.07 -1.55)"/></svg>